HIERARCHY
ROOT Hips
{
	OFFSET 0.00000 0.00000 0.00000
	CHANNELS 6 Xposition Yposition Zposition Zrotation Yrotation Xrotation 
	JOINT LHipJoint
	{
		OFFSET 0 0 0
		CHANNELS 3 Zrotation Yrotation Xrotation
		JOINT LeftHip
		{
			OFFSET 1.37959 -1.78713 0.86582
			CHANNELS 3 Zrotation Yrotation Xrotation
			JOINT LeftKnee
			{
				OFFSET 2.54611 -6.99539 0.00000
				CHANNELS 3 Zrotation Yrotation Xrotation
				JOINT LeftAnkle
				{
					OFFSET 2.59951 -7.14211 0.00000
					CHANNELS 3 Zrotation Yrotation Xrotation
					JOINT LeftToe
					{
						OFFSET 0.18493 -0.50810 1.96120
						CHANNELS 3 Zrotation Yrotation Xrotation
						End Site
						{
							OFFSET 0.00000 -0.00000 1.02054
						}
					}
				}
			}
		}
	}
	JOINT RHipJoint
	{
		OFFSET 0 0 0
		CHANNELS 3 Zrotation Yrotation Xrotation
		JOINT RightHip
		{
			OFFSET -1.33564 -1.78713 0.86582
			CHANNELS 3 Zrotation Yrotation Xrotation
			JOINT RightKnee
			{
				OFFSET -2.52705 -6.94302 0.00000
				CHANNELS 3 Zrotation Yrotation Xrotation
				JOINT RightAnkle
				{
					OFFSET -2.55964 -7.03257 0.00000
					CHANNELS 3 Zrotation Yrotation Xrotation
					JOINT RightToe
					{
						OFFSET -0.25804 -0.70896 2.12109
						CHANNELS 3 Zrotation Yrotation Xrotation
						End Site
						{
							OFFSET -0.00000 -0.00000 1.11821
						}
					}
				}
			}
		}
	}
	JOINT lowerback
	{
		OFFSET 0 0 0
		CHANNELS 3 Zrotation Yrotation Xrotation
		JOINT Chest
		{
			OFFSET -0.02031 2.24248 -0.18900
			CHANNELS 3 Zrotation Yrotation Xrotation
			JOINT Chest2
			{
				OFFSET 0.08342 2.24689 -0.03799
				CHANNELS 3 Zrotation Yrotation Xrotation
				JOINT lowerneck
				{
					OFFSET 0 0 0
					CHANNELS 3 Zrotation Yrotation Xrotation
					JOINT Neck
					{
						OFFSET -0.11607 1.55844 0.24628
						CHANNELS 3 Zrotation Yrotation Xrotation
						JOINT Head
						{
							OFFSET 0.06877 1.60174 -0.17013
							CHANNELS 3 Zrotation Yrotation Xrotation
							End Site
							{
								OFFSET 0.03358 1.61266 -0.08543
							}
						}
					}
				}
				JOINT LeftCollar
				{
					OFFSET 0 0 0
					CHANNELS 3 Zrotation Yrotation Xrotation
					JOINT LeftShoulder
					{
						OFFSET 3.47537 0.55866 -0.72348
CHANNELS 3 Zrotation Xrotation Yrotation
						JOINT LeftElbow
						{
OFFSET 0 -5.381540 0.000000
CHANNELS 3 Zrotation Xrotation Yrotation
							JOINT LeftWrist
							{
OFFSET 0 -3.333120 0.000000
CHANNELS 3 Zrotation Xrotation Yrotation
								JOINT lhand
								{
									OFFSET 0 0 0
CHANNELS 3 Zrotation Xrotation Yrotation
									JOINT LFingers
									{
OFFSET 0 -0.710790 0.000000
CHANNELS 3 Zrotation Xrotation Yrotation
										End Site
										{
OFFSET 0 -0.573060 0.000000
										}
									}
								}
								JOINT LThumb
								{
OFFSET 0 0.000000 0.000000
CHANNELS 3 Zrotation Xrotation Yrotation
									End Site
									{
OFFSET 0 -0.581810 0.581810
									}
								}
							}
						}
					}
				}
				JOINT RightCollar
				{
					OFFSET 0 0 0
					CHANNELS 3 Zrotation Yrotation Xrotation
					JOINT RightShoulder
					{
						OFFSET -3.27844 0.90739 -0.35708
CHANNELS 3 Zrotation Xrotation Yrotation
						JOINT RightElbow
						{
OFFSET 0 -5.169540 0.000000
CHANNELS 3 Zrotation Xrotation Yrotation
							JOINT RightWrist
							{
OFFSET 0 -3.382870 0.000000
CHANNELS 3 Zrotation Xrotation Yrotation
								JOINT rhand
								{
									OFFSET 0 0 0
CHANNELS 3 Zrotation Xrotation Yrotation
									JOINT RFingers
									{
OFFSET 0 -0.817970 0.000000
CHANNELS 3 Zrotation Xrotation Yrotation
										End Site
										{
OFFSET 0 -0.659470 0.000000
										}
									}
								}
								JOINT RThumb
								{
OFFSET 0 0.000000 0.000000
CHANNELS 3 Zrotation Xrotation Yrotation
									End Site
									{
OFFSET 0 -0.669530 0.669530
									}
								}
							}
						}
					}
				}
			}
		}
	}
}
MOTION
Frames: 7
Frame Time: 0.008333333333333333
8.985900 17.787100 6.295000 170.158000 -70.252900 -165.131000 0.000000 0.000000 0.000000 -20.973700 -2.649300 -10.008000 2.199700 9.270200 26.644100 1.160900 0.627500 -20.603300 0.000600 -0.159500 -0.438200 0.000000 0.000000 0.000000 11.809900 1.880000 -16.655000 -3.317300 -11.191700 32.929200 -0.872600 -5.419800 -20.416000 -0.031000 1.137200 -3.126400 -8.448900 -0.953700 2.924100 0.916500 -1.484700 3.260600 5.712300 -0.971100 1.990400 -18.120000 -16.016000 1.619400 22.748000 -25.740200 11.369600 7.573500 -12.611100 8.707400 -0.000000 -0.000000 0.000000 5.366200 -0.636400 -13.275200 16.834900 -26.639600 4.013000 0.981700 9.871300 -41.026100 0.000000 0.000000 0.000000 -7.125000 0.000000 0.000000 -45.576000 65.382000 24.691600 -0.000000 -0.000000 0.000000 -4.915300 -2.534100 11.410300 -17.504300 -27.517800 -4.317800 -16.958900 -16.223700 -20.052000 0.000000 0.000000 0.000000 7.125000 0.000000 -0.000000 7.355000 9.231200 6.132000
8.979493 17.787033 6.294056 168.918347 -70.175675 -163.959467 0.000000 0.000000 0.000000 -21.482376 -2.652335 -10.017780 2.208333 9.287129 26.697652 1.154965 0.819518 -20.624073 0.005254 -0.430092 -1.181789 0.000000 0.000000 0.000000 11.300482 1.502709 -16.821524 -3.334094 -11.217127 33.015733 -0.891282 -5.022545 -20.337965 -0.026818 1.056265 -2.903559 -8.819649 -1.006982 2.878507 0.787814 -1.556260 3.329530 5.784332 -1.022763 2.109644 -18.091538 -16.001634 1.424347 22.745842 -25.697439 11.414789 7.559606 -12.573533 8.743483 0.000000 0.000000 0.000000 5.415098 -0.757195 -13.273446 16.913002 -26.742927 4.048139 -0.148084 8.978790 -40.773785 0.000000 0.000000 0.000000 -7.125000 0.000000 0.000000 -46.248299 64.883711 24.609653 0.000000 0.000000 0.000000 -4.822697 -2.562832 10.879974 -17.516036 -27.533043 -4.323196 -17.371735 -16.413897 -20.685653 0.000000 0.000000 0.000000 7.125000 0.000000 0.000000 7.125280 8.529225 6.036092
8.975981 17.785639 6.291960 168.409322 -70.113732 -163.458898 0.000000 0.000000 0.000000 -21.701208 -2.683493 -10.047657 2.216757 9.303639 26.749878 1.147425 1.013420 -20.633297 0.010466 -0.650336 -1.787139 0.000000 0.000000 0.000000 11.076861 1.315157 -16.946840 -3.341851 -11.228877 33.055755 -0.918304 -4.678254 -20.376852 -0.016182 0.679939 -1.868968 -8.963499 -1.054263 2.855104 0.742518 -1.618888 3.372953 5.816797 -1.062285 2.182552 -18.155538 -15.988280 1.168199 22.713537 -25.672997 11.590471 7.538769 -12.540292 8.846489 0.000000 0.000000 0.000000 5.418254 -0.862778 -13.132406 16.989674 -26.844125 4.082720 -1.157771 8.240641 -40.651197 0.000000 0.000000 0.000000 -7.125000 0.000000 0.000000 -47.003535 64.511764 24.705619 0.000000 0.000000 0.000000 -4.755739 -2.531411 10.357778 -17.612767 -27.658194 -4.368158 -17.666603 -16.604513 -21.293137 0.000000 0.000000 0.000000 7.125000 0.000000 0.000000 6.972495 7.868247 5.997406
8.975069 17.783327 6.288573 168.623866 -70.070353 -163.623776 0.000000 0.000000 0.000000 -21.631562 -2.736869 -10.095764 2.224679 9.319160 26.798976 1.138623 1.201225 -20.630676 0.015988 -0.817294 -2.246159 0.000000 0.000000 0.000000 11.139599 1.302674 -17.032902 -3.341763 -11.228748 33.055389 -0.953422 -4.389063 -20.531029 -0.000287 0.035838 -0.098530 -8.880480 -1.094780 2.856595 0.777562 -1.671824 3.387193 5.806629 -1.088843 2.203494 -18.304244 -15.975540 0.865835 22.652360 -25.666928 11.887180 7.511776 -12.512633 9.009708 0.000000 0.000000 0.000000 5.383335 -0.945426 -12.869613 17.064181 -26.942244 4.116409 -2.031164 7.660390 -40.637432 0.000000 0.000000 0.000000 -7.125000 0.000000 0.000000 -47.795415 64.256193 24.939884 0.000000 0.000000 0.000000 -4.711512 -2.434155 9.841797 -17.788372 -27.885283 -4.449864 -17.851645 -16.798497 -21.874878 0.000000 0.000000 0.000000 7.125000 0.000000 0.000000 6.891418 7.246804 6.011736
8.971292 17.789869 6.279130 170.005155 -70.146904 -164.887035 0.000000 0.000000 0.000000 -21.059082 -2.678259 -10.129352 2.224072 9.318014 26.795402 1.136397 1.170200 -20.598234 0.015651 -0.808458 -2.221878 0.000000 0.000000 0.000000 11.751332 1.235566 -17.096436 -3.358018 -11.253231 33.138752 -0.997329 -4.258151 -20.857938 -0.005683 -0.390149 1.072193 -8.374907 -1.102874 2.974760 0.883250 -1.686931 3.251357 5.637205 -1.069891 1.981126 -18.409392 -15.953621 0.863946 22.570414 -25.696605 12.163640 7.493768 -12.528011 9.110944 0.000000 0.000000 0.000000 5.476680 -0.784568 -12.835350 17.115575 -27.009892 4.139745 -2.229253 7.466753 -40.283409 0.000000 0.000000 0.000000 -7.125000 0.000000 0.000000 -47.452454 63.958757 24.402679 0.000000 0.000000 0.000000 -4.633950 -2.066373 9.287663 -17.952063 -28.095444 -4.526753 -18.043393 -17.075429 -22.419637 0.000000 0.000000 0.000000 7.125000 0.000000 0.000000 6.808258 6.661105 6.015647
8.965207 17.793805 6.265332 170.911778 -70.239202 -165.780240 0.000000 0.000000 0.000000 -20.642628 -2.521327 -10.086956 2.223130 9.316197 26.789630 1.140314 1.007199 -20.568846 0.012522 -0.713625 -1.961195 0.000000 0.000000 0.000000 12.193227 1.068052 -17.075833 -3.377213 -11.281958 33.236820 -1.037736 -4.100769 -21.134738 -0.013498 -0.726080 1.995568 -8.083883 -1.110483 3.112842 0.947949 -1.705874 3.155393 5.545925 -1.061437 1.797065 -18.397679 -15.949459 0.868610 22.439362 -25.734024 12.405366 7.442366 -12.545622 9.176515 0.000000 0.000000 0.000000 5.576688 -0.648951 -12.802540 17.155204 -27.061979 4.157757 -2.469297 7.355727 -39.662494 0.000000 0.000000 0.000000 -7.125000 0.000000 0.000000 -46.785416 63.461999 23.459457 0.000000 0.000000 0.000000 -4.562641 -1.710803 8.809178 -18.069330 -28.245741 -4.582011 -18.335063 -17.456788 -22.930481 0.000000 0.000000 0.000000 7.125000 0.000000 0.000000 6.662776 6.094504 5.957946
8.957767 17.795472 6.249083 171.334643 -70.326468 -166.276093 0.000000 0.000000 0.000000 -20.398035 -2.297045 -9.987632 2.222028 9.314051 26.782759 1.148955 0.755926 -20.546955 0.007435 -0.557689 -1.532544 0.000000 0.000000 0.000000 12.448555 0.825119 -17.003010 -3.399539 -11.315224 33.350587 -1.072901 -3.913882 -21.345221 -0.022937 -0.977459 2.686704 -7.997724 -1.113409 3.265917 0.969422 -1.722805 3.093255 5.524885 -1.059612 1.646309 -18.289343 -15.962627 0.871884 22.266693 -25.780651 12.620400 7.361732 -12.565729 9.214994 0.000000 0.000000 0.000000 5.678217 -0.540342 -12.778256 17.186089 -27.102482 4.171814 -2.730383 7.320479 -38.863115 0.000000 0.000000 0.000000 -7.125000 0.000000 0.000000 -45.898527 62.833408 22.245680 0.000000 0.000000 0.000000 -4.505642 -1.379270 8.401391 -18.143222 -28.340171 -4.617016 -18.704475 -17.938434 -23.411338 0.000000 0.000000 0.000000 7.125000 0.000000 0.000000 6.468946 5.546224 5.851516
